<svg width="125" height="52" viewBox="0 0 125 52" fill="none" xmlns="http://www.w3.org/2000/svg">
<path d="M9.55202 44.192C8.17602 44.192 7.10402 43.968 6.33602 43.52C5.60002 43.072 5.08802 42.448 4.80002 41.648C4.51202 40.816 4.36802 39.888 4.36802 38.864V22.832H0.624023V20.768L4.36802 19.76L5.52002 14.768H8.30402V20.24H15.072V21.584L14.4 22.832H8.30402V38.528C8.30402 39.52 8.49602 40.176 8.88002 40.496C9.29602 40.784 9.90402 40.928 10.704 40.928C11.6 40.928 12.416 40.848 13.152 40.688C13.888 40.496 14.352 40.368 14.544 40.304L15.024 41.84C14.256 42.544 13.36 43.12 12.336 43.568C11.312 43.984 10.384 44.192 9.55202 44.192Z" fill="#194A33"/>
<path d="M26.7868 44.432C24.4188 44.432 22.4668 43.936 20.9308 42.944C19.3948 41.92 18.2588 40.528 17.5228 38.768C16.7868 37.008 16.4188 35.024 16.4188 32.816C16.4188 30.192 16.8668 27.904 17.7628 25.952C18.6908 24 19.9548 22.496 21.5548 21.44C23.1868 20.352 25.0588 19.808 27.1708 19.808C28.5788 19.808 29.7788 20.048 30.7708 20.528C31.7628 21.008 32.5628 21.664 33.1708 22.496C33.8108 23.328 34.2748 24.272 34.5628 25.328C34.8828 26.352 35.0428 27.424 35.0428 28.544C35.0428 30.272 34.8828 31.424 34.5628 32C34.2428 32.544 33.6348 32.816 32.7388 32.816H20.6908C20.6908 34.32 20.9308 35.696 21.4108 36.944C21.8908 38.192 22.6748 39.2 23.7628 39.968C24.8828 40.704 26.3708 41.072 28.2268 41.072C29.9868 41.072 31.3468 40.896 32.3068 40.544C33.2988 40.192 33.8588 39.984 33.9868 39.92L34.6588 41.264C34.5628 41.36 34.1788 41.664 33.5068 42.176C32.8668 42.688 31.9708 43.2 30.8188 43.712C29.6988 44.192 28.3548 44.432 26.7868 44.432ZM20.7388 30.608L31.0108 30.224C31.1068 29.648 31.1548 29.008 31.1548 28.304C31.1548 26.48 30.8348 25.072 30.1948 24.08C29.5548 23.088 28.3228 22.592 26.4988 22.592C25.1868 22.592 24.0988 22.912 23.2348 23.552C22.4028 24.16 21.7788 25.072 21.3628 26.288C20.9788 27.472 20.7708 28.912 20.7388 30.608Z" fill="#194A33"/>
<path d="M44.371 44.336C42.739 44.336 41.427 44.064 40.435 43.52C39.475 42.976 38.771 42.256 38.323 41.36C37.907 40.432 37.699 39.44 37.699 38.384C37.699 37.04 38.003 35.872 38.611 34.88C39.251 33.888 40.211 33.072 41.491 32.432C42.771 31.792 44.371 31.36 46.291 31.136L50.611 30.512V26.912C50.611 25.984 50.419 25.216 50.035 24.608C49.683 24 49.155 23.568 48.451 23.312C47.779 23.024 46.931 22.88 45.907 22.88C45.107 22.88 44.435 22.944 43.891 23.072C43.347 23.168 43.027 23.232 42.931 23.264L42.211 27.68C42.179 27.712 42.051 27.776 41.827 27.872C41.603 27.968 41.219 28.016 40.675 28.016C40.131 28.016 39.619 27.824 39.139 27.44C38.691 27.024 38.467 26.48 38.467 25.808C38.467 24.816 38.835 23.936 39.571 23.168C40.339 22.4 41.267 21.776 42.355 21.296C43.443 20.784 44.531 20.416 45.619 20.192C46.707 19.936 47.587 19.808 48.259 19.808C49.635 19.808 50.787 20.064 51.715 20.576C52.643 21.056 53.347 21.712 53.827 22.544C54.307 23.376 54.547 24.304 54.547 25.328V40.736L57.955 41.408V43.232C57.859 43.264 57.603 43.36 57.187 43.52C56.803 43.68 56.275 43.84 55.603 44C54.963 44.128 54.211 44.192 53.347 44.192C52.451 44.192 51.827 43.952 51.475 43.472C51.155 42.992 50.963 42.496 50.899 41.984H50.707C50.227 42.368 49.651 42.736 48.979 43.088C48.339 43.44 47.635 43.744 46.867 44C46.099 44.224 45.267 44.336 44.371 44.336ZM46.291 41.312C47.507 41.312 48.531 41.168 49.363 40.88C50.195 40.56 50.611 40.4 50.611 40.4V32.816C48.627 32.944 46.995 33.2 45.715 33.584C44.435 33.968 43.475 34.496 42.835 35.168C42.227 35.808 41.923 36.64 41.923 37.664C41.923 40.096 43.379 41.312 46.291 41.312Z" fill="#194A33"/>
<path d="M59.2815 51.92V49.904L62.5935 49.232V24.272L58.7535 23.6V21.632L65.9055 20.288L66.3855 22.16L66.4815 22.256C67.2495 21.616 68.2575 21.056 69.5055 20.576C70.7855 20.064 72.0175 19.808 73.2015 19.808C76.0495 19.808 78.2255 20.752 79.7295 22.64C81.2655 24.496 82.0335 27.216 82.0335 30.8C82.0335 33.456 81.5855 35.776 80.6895 37.76C79.8255 39.744 78.6095 41.28 77.0415 42.368C75.4735 43.456 73.6335 44 71.5215 44C70.6575 44 69.7615 43.856 68.8335 43.568C67.9375 43.248 67.1375 42.832 66.4335 42.32V42.608L66.5295 43.088V49.232L70.6575 49.808V51.92H59.2815ZM71.2815 41.216C73.5535 41.216 75.1855 40.48 76.1775 39.008C77.2015 37.536 77.7135 35.232 77.7135 32.096C77.7135 28.896 77.2335 26.608 76.2735 25.232C75.3135 23.856 73.7135 23.168 71.4735 23.168C70.6095 23.168 69.7775 23.232 68.9775 23.36C68.1775 23.456 67.3615 23.632 66.5295 23.888V40.16C67.1055 40.512 67.8255 40.784 68.6895 40.976C69.5855 41.136 70.4495 41.216 71.2815 41.216Z" fill="#194A33"/>
<path d="M93.7187 44.432C91.4787 44.432 89.6066 43.952 88.1026 42.992C86.5986 42.032 85.4626 40.656 84.6946 38.864C83.9586 37.072 83.5906 34.944 83.5906 32.48C83.5906 30.752 83.8306 29.136 84.3106 27.632C84.8226 26.096 85.5426 24.752 86.4706 23.6C87.4306 22.416 88.5826 21.488 89.9267 20.816C91.3027 20.144 92.8386 19.808 94.5346 19.808C96.8386 19.808 98.7586 20.288 100.295 21.248C101.831 22.176 102.967 23.504 103.703 25.232C104.471 26.96 104.855 29.008 104.855 31.376C104.855 33.232 104.615 34.96 104.135 36.56C103.687 38.128 102.999 39.504 102.071 40.688C101.143 41.872 99.9746 42.8 98.5667 43.472C97.1907 44.112 95.5747 44.432 93.7187 44.432ZM94.6306 41.648C96.1666 41.648 97.3667 41.28 98.2307 40.544C99.0947 39.776 99.7027 38.688 100.055 37.28C100.407 35.872 100.583 34.192 100.583 32.24C100.583 30 100.391 28.176 100.007 26.768C99.6226 25.328 98.9827 24.272 98.0866 23.6C97.1906 22.928 95.9267 22.592 94.2946 22.592C92.5026 22.592 91.1426 22.96 90.2146 23.696C89.2866 24.4 88.6627 25.472 88.3427 26.912C88.0546 28.32 87.9106 30.096 87.9106 32.24C87.9106 34.224 88.1026 35.92 88.4866 37.328C88.8707 38.736 89.5426 39.808 90.5026 40.544C91.4946 41.28 92.8706 41.648 94.6306 41.648Z" fill="#194A33"/>
<path d="M106.21 44V41.84L119.314 23.36V22.88H110.146L109.474 26.768H107.41L106.786 20.288H124.306V22.832L111.442 40.928V41.408H121.714L122.386 37.424H124.45L124.978 44H106.21Z" fill="#194A33"/>
<path fill-rule="evenodd" clip-rule="evenodd" d="M25.0929 13.9621C21.3218 9.75304 19.5835 4.47873 20.0843 0.0291022C24.2977 -0.276621 29.1741 1.83311 32.9452 6.04214C36.7162 10.2516 38.4546 15.5255 37.9537 19.9756C37.8025 19.9867 37.6499 19.9941 37.497 19.9988C36.6024 18.5315 35.6821 17.1297 34.7452 15.8015C34.914 14.2012 34.884 12.5812 34.8288 10.9155C34.7067 12.3937 34.6295 13.9045 34.3858 15.2967C33.0736 13.4706 31.7326 11.79 30.3896 10.2769C30.2965 9.32657 30.0809 8.39358 29.8448 7.43693C29.9527 8.28936 30.0898 9.15399 30.1188 9.97412C28.3354 7.99521 26.5508 6.31386 24.8279 4.98158C25.8424 5.85787 26.8715 6.84636 27.9041 7.93747C27.2696 8.02288 26.5876 8.02398 25.9188 8.04814C26.6569 8.11748 27.3756 8.17338 28.0904 8.13547C29.4809 9.6214 30.8754 11.2919 32.2445 13.1232C31.069 13.1054 29.8214 12.8962 28.5922 12.7368C29.9273 13.0907 31.2288 13.4119 32.553 13.5392C34.0113 15.5212 35.4385 17.6847 36.7978 20C32.8685 19.8821 28.5233 17.7911 25.0929 13.9621ZM47.8176 15.1947C50.8569 11.8702 52.2959 7.69335 51.9494 4.16209C48.6108 3.90422 44.719 5.55911 41.6798 8.88358C40.2729 10.4231 39.2088 12.145 38.5058 13.9013C38.7374 15.4797 38.8201 17.0819 38.7219 18.6725C39.1889 17.9651 39.6619 17.2797 40.1403 16.6172C40.0246 15.3472 40.0668 14.0625 40.13 12.741C40.2102 13.9143 40.2537 15.1127 40.4312 16.2178C41.493 14.7744 42.5755 13.4463 43.6581 12.2511C43.7427 11.4973 43.9243 10.7582 44.1229 10.0005C44.0279 10.6765 43.9091 11.3616 43.8766 12.0121C45.3137 10.4494 46.7484 9.12201 48.1302 8.07157C47.3155 8.76273 46.4879 9.54289 45.6565 10.4048C46.1588 10.4747 46.6996 10.4783 47.2301 10.5002C46.6437 10.5526 46.0731 10.5942 45.5067 10.5611C44.3869 11.7344 43.2617 13.0543 42.1545 14.5018C43.0873 14.4924 44.0792 14.3308 45.0558 14.209C43.9931 14.4849 42.9565 14.735 41.905 14.8306C40.7869 16.3156 39.6897 17.93 38.6378 19.6534C38.6357 19.6726 38.6335 19.6918 38.6314 19.711L38.6063 19.9344C41.6879 19.8117 45.0948 18.1736 47.8176 15.1947Z" fill="#8CBC4F"/>
</svg>
